<svg xmlns="http://www.w3.org/2000/svg" viewBox="0 0 64 64" width="64" height="64">
  <defs>
    <linearGradient id="g" x1="0%" y1="0%" x2="100%" y2="100%">
      <stop offset="0%" stop-color="#3b82f6"/>
      <stop offset="100%" stop-color="#0ea5e9"/>
    </linearGradient>
  </defs>
  <rect width="64" height="64" rx="14" fill="#0a1628"/>
  <!-- Neural network nodes -->
  <circle cx="16" cy="18" r="4" fill="url(#g)" opacity="0.8"/>
  <circle cx="16" cy="46" r="4" fill="url(#g)" opacity="0.8"/>
  <circle cx="32" cy="14" r="4.5" fill="url(#g)"/>
  <circle cx="32" cy="32" r="4.5" fill="url(#g)"/>
  <circle cx="32" cy="50" r="4.5" fill="url(#g)"/>
  <circle cx="48" cy="24" r="4" fill="url(#g)" opacity="0.8"/>
  <circle cx="48" cy="42" r="4" fill="url(#g)" opacity="0.8"/>
  <!-- Connections -->
  <line x1="16" y1="18" x2="32" y2="14" stroke="#3b82f6" stroke-width="1.2" opacity="0.5"/>
  <line x1="16" y1="18" x2="32" y2="32" stroke="#3b82f6" stroke-width="1.2" opacity="0.5"/>
  <line x1="16" y1="46" x2="32" y2="32" stroke="#3b82f6" stroke-width="1.2" opacity="0.5"/>
  <line x1="16" y1="46" x2="32" y2="50" stroke="#3b82f6" stroke-width="1.2" opacity="0.5"/>
  <line x1="32" y1="14" x2="48" y2="24" stroke="#3b82f6" stroke-width="1.2" opacity="0.5"/>
  <line x1="32" y1="32" x2="48" y2="24" stroke="#3b82f6" stroke-width="1.2" opacity="0.5"/>
  <line x1="32" y1="32" x2="48" y2="42" stroke="#3b82f6" stroke-width="1.2" opacity="0.5"/>
  <line x1="32" y1="50" x2="48" y2="42" stroke="#3b82f6" stroke-width="1.2" opacity="0.5"/>
  <line x1="16" y1="18" x2="32" y2="50" stroke="#3b82f6" stroke-width="0.8" opacity="0.25"/>
  <line x1="16" y1="46" x2="32" y2="14" stroke="#3b82f6" stroke-width="0.8" opacity="0.25"/>
  <line x1="32" y1="14" x2="48" y2="42" stroke="#3b82f6" stroke-width="0.8" opacity="0.25"/>
  <line x1="32" y1="50" x2="48" y2="24" stroke="#3b82f6" stroke-width="0.8" opacity="0.25"/>
</svg>
